# This file uses centimeters as units for non-parametric coordinates.

mtllib curve hole.mtl
g default
v -2.264457 0.038408 0.603225
v -2.264457 0.038408 -0.603194
v 2.266906 0.043505 -0.603194
v 2.266906 0.043505 0.603225
v -3.045752 2.837869 0.605138
v -3.045752 2.837868 -0.605121
v 3.045752 2.837869 -0.605121
v 3.045752 2.837869 0.605138
v -2.543129 4.603374 0.605138
v 2.543128 4.603374 0.605138
v 2.543129 4.603374 -0.605121
v -2.543129 4.603374 -0.605121
v -1.796642 5.358220 -0.605121
v -0.922060 5.798223 -0.605121
v 0.000000 5.929912 -0.605121
v 0.922060 5.798223 -0.605121
v 1.796642 5.358220 -0.605121
v 1.796642 5.358220 0.605138
v 0.922060 5.798223 0.605138
v 0.000000 5.929911 0.605138
v -0.922060 5.798223 0.605138
v -1.796642 5.358220 0.605138
v -2.618574 1.022249 0.605138
v 2.619952 1.025116 0.605138
v 2.619951 1.025116 -0.605121
v -2.618574 1.022249 -0.605121
v 2.912492 3.719038 0.605138
v 2.912492 3.719038 -0.605121
v -2.912492 3.719038 0.605138
v -2.912492 3.719038 -0.605121
v 2.931962 1.918837 -0.605121
v 2.931961 1.918837 0.605138
v -2.931961 1.918837 -0.605121
v -2.931961 1.918837 0.605138
v -3.500292 0.917577 0.597758
v -3.787924 1.744082 0.597758
v -3.914919 2.822983 0.597758
v -3.756292 3.945335 0.597758
v -3.261969 5.074622 0.597758
v -2.302523 6.059823 0.597758
v -1.177848 6.628825 0.597758
v 0.000000 6.802578 0.597758
v 1.177848 6.628825 0.597758
v 2.302523 6.059823 0.597758
v 3.261969 5.074622 0.597758
v 3.756292 3.945335 0.597758
v 3.914919 2.822983 0.597758
v 3.787924 1.744082 0.597758
v 3.501449 0.920146 0.597758
v 2.975555 0.039773 0.597758
v 2.159543 0.040276 0.597758
v 2.494023 1.040112 0.597758
v 2.809681 1.943802 0.597758
v 2.921585 2.839995 0.597758
v 2.791950 3.686709 0.597758
v 2.440438 4.536054 0.597758
v 1.724373 5.257991 0.597758
v 0.885518 5.679566 0.597758
v 0.000000 5.805245 0.597758
v -0.885518 5.679566 0.597758
v -1.724373 5.257991 0.597758
v -2.440438 4.536054 0.597758
v -2.791950 3.686709 0.597758
v -2.921585 2.839995 0.597758
v -2.809681 1.943802 0.597758
v -2.492614 1.037201 0.597758
v 2.405986 0.553236 0.605138
v 2.275611 0.560920 0.597758
v -2.976111 0.040957 0.605138
v -2.160088 0.041443 0.605138
v 3.449093 4.465667 0.605138
v 2.768479 4.166532 0.605138
v 3.790752 2.825110 -0.605121
v 3.790752 2.825110 0.605138
v 3.750073 3.368078 0.605138
v 3.007814 3.280391 0.605138
v 3.665643 1.769047 -0.605121
v 3.665643 1.769047 0.605138
v 3.756475 2.278334 0.605138
v 3.017616 2.378743 0.605138
v 3.375521 0.935142 -0.605121
v 3.375521 0.935142 0.605138
v 3.536657 1.338548 0.605138
v 2.797341 1.473972 0.605138
v 2.871139 0.042835 -0.603194
v 2.975555 0.039773 -0.597689
v 2.159543 0.040276 -0.597689
v 3.188239 0.507135 0.605138
v -2.869026 0.038191 0.603225
v -2.974398 0.037204 0.597758
v -2.158134 0.037366 0.597758
v 2.871139 0.042835 0.603225
v -2.024084 0.041525 0.597758
v 2.980865 0.051403 0.605138
v 2.165598 0.052913 0.605138
v 3.116743 0.051152 0.597758
v 2.980865 0.051404 -0.605121
v 2.165598 0.052913 -0.605121
v 2.029720 0.053164 0.597758
v -2.976111 0.040957 -0.605121
v -2.160088 0.041443 -0.605121
v -3.112115 0.040875 0.597758
v -3.112115 0.040875 -0.597689
v -3.313986 0.489175 0.597758
v -3.500292 0.917577 -0.597689
v -3.183485 0.496688 -0.605121
v -3.659876 1.315978 0.597758
v -3.787924 1.744082 -0.597689
v -3.536657 1.338548 -0.605121
v -3.879619 2.261599 0.597758
v -3.914919 2.822983 -0.597689
v -3.756476 2.278334 -0.605121
v -3.873784 3.382692 0.597758
v -3.756292 3.945335 -0.597689
v -3.750074 3.368078 -0.605121
v -3.562528 4.515523 0.597758
v -3.261969 5.074622 -0.597689
v -3.449093 4.465667 -0.605121
v -2.824093 5.604000 0.597758
v -2.302523 6.059823 -0.597689
v -2.735480 5.519153 -0.605121
v -1.750881 6.398257 0.597758
v -1.177848 6.628825 -0.597689
v -1.696158 6.286999 -0.605121
v -0.592102 6.761050 0.597758
v 0.000000 6.802578 -0.597689
v -0.573814 6.637902 -0.605121
v 0.592102 6.761050 0.597758
v 1.177848 6.628825 -0.597689
v 0.573814 6.637902 -0.605121
v 1.750882 6.398257 0.597758
v 2.302523 6.059823 -0.597689
v 1.696159 6.286999 -0.605121
v 2.824093 5.604000 0.597758
v 3.261969 5.074622 -0.597689
v 2.735480 5.519153 -0.605121
v 3.562528 4.515523 0.597758
v 3.756292 3.945335 -0.597689
v 3.449093 4.465667 -0.605121
v 3.873783 3.382692 0.597758
v 3.914919 2.822983 -0.597689
v 3.750073 3.368078 -0.605121
v 3.879618 2.261599 0.597758
v 3.787924 1.744082 -0.597689
v 3.756475 2.278334 -0.605121
v 3.659876 1.315978 0.597758
v 3.501449 0.920146 -0.597689
v 3.536657 1.338548 -0.605121
v 3.318614 0.499451 0.597758
v 3.318614 0.499452 -0.597689
v 3.188239 0.507135 -0.605121
v -2.024084 0.041525 -0.597689
v -2.400476 0.541767 -0.605121
v -2.492614 1.037201 -0.597689
v -2.269974 0.549281 0.597758
v -2.797342 1.473972 -0.605121
v -2.809681 1.943802 -0.597689
v -2.674122 1.496543 0.597758
v -3.017616 2.378743 -0.605121
v -2.921585 2.839995 -0.597689
v -2.894473 2.395478 0.597758
v -3.007814 3.280391 -0.605121
v -2.791950 3.686709 -0.597689
v -2.884104 3.265777 0.597758
v -2.768479 4.166532 -0.605121
v -2.440438 4.536054 -0.597689
v -2.655044 4.116676 0.597758
v -2.203797 5.010067 -0.605121
v -1.724373 5.257991 -0.597689
v -2.115184 4.925219 0.597758
v -1.367821 5.619449 -0.605121
v -0.885518 5.679566 -0.597689
v -1.313098 5.508191 0.597758
v -0.464083 5.899012 -0.605121
v 0.000000 5.805245 -0.597689
v -0.445795 5.775865 0.597758
v 0.464083 5.899012 -0.605121
v 0.885518 5.679566 -0.597689
v 0.445795 5.775865 0.597758
v 1.367821 5.619449 -0.605121
v 1.724373 5.257991 -0.597689
v 1.313098 5.508191 0.597758
v 2.203797 5.010067 -0.605121
v 2.440438 4.536054 -0.597689
v 2.115184 4.925219 0.597758
v 2.768479 4.166532 -0.605121
v 2.791950 3.686709 -0.597689
v 2.655044 4.116676 0.597758
v 3.007814 3.280392 -0.605121
v 2.921585 2.839995 -0.597689
v 2.884104 3.265777 0.597758
v 3.017616 2.378743 -0.605121
v 2.809681 1.943802 -0.597689
v 2.894473 2.395478 0.597758
v 2.797342 1.473972 -0.605121
v 2.494023 1.040112 -0.597689
v 2.674122 1.496543 0.597758
v 2.405986 0.553236 -0.605121
v 2.275611 0.560920 -0.597689
v -3.374333 0.932530 -0.605121
v -3.374333 0.932530 0.605138
v -3.183485 0.496688 0.605138
v -2.400476 0.541767 0.605138
v -2.974398 0.037204 -0.597689
v -2.869026 0.038191 -0.603194
v -2.158134 0.037366 -0.597689
v -3.665643 1.769047 -0.605121
v -3.665643 1.769047 0.605138
v -3.536657 1.338548 0.605138
v -2.797341 1.473972 0.605138
v -3.790752 2.825110 -0.605121
v -3.790753 2.825110 0.605138
v -3.756476 2.278334 0.605138
v -3.017616 2.378743 0.605138
v -3.635749 3.913007 -0.605121
v -3.635749 3.913007 0.605138
v -3.750074 3.368078 0.605138
v -3.007814 3.280392 0.605138
v -3.159278 5.007301 -0.605121
v -3.159277 5.007301 0.605138
v -3.449093 4.465667 0.605138
v -2.768479 4.166532 0.605138
v -2.230254 5.959594 -0.605121
v -2.230254 5.959594 0.605138
v -2.735480 5.519153 0.605138
v -2.203797 5.010067 0.605138
v -1.141307 6.510167 -0.605121
v -1.141307 6.510167 0.605138
v -1.696158 6.286999 0.605138
v -1.367821 5.619449 0.605138
v 0.000000 6.677911 -0.605121
v 0.000000 6.677911 0.605138
v -0.573813 6.637902 0.605138
v -0.464083 5.899012 0.605138
v 1.141307 6.510167 -0.605121
v 1.141307 6.510167 0.605138
v 0.573814 6.637902 0.605138
v 0.464083 5.899012 0.605138
v 2.230254 5.959594 -0.605121
v 2.230254 5.959594 0.605138
v 1.696159 6.286999 0.605138
v 1.367821 5.619449 0.605138
v 3.159277 5.007301 -0.605121
v 3.159277 5.007301 0.605138
v 2.735480 5.519153 0.605138
v 2.203797 5.010067 0.605138
v 3.635749 3.913007 -0.605121
v 3.635749 3.913007 0.605138
v -3.313986 0.489175 -0.597689
v -3.659876 1.315978 -0.597689
v -3.879619 2.261599 -0.597689
v -3.873784 3.382692 -0.597689
v -3.562528 4.515523 -0.597689
v -2.824093 5.604000 -0.597689
v -1.750881 6.398257 -0.597689
v -0.592102 6.761050 -0.597689
v 0.592102 6.761050 -0.597689
v 1.750882 6.398257 -0.597689
v 2.824093 5.604000 -0.597689
v 3.562528 4.515523 -0.597689
v 3.873783 3.382692 -0.597689
v 3.879619 2.261599 -0.597689
v 3.659876 1.315978 -0.597689
v -2.269974 0.549280 -0.597689
v -2.674122 1.496543 -0.597689
v -2.894473 2.395478 -0.597689
v -2.884104 3.265777 -0.597689
v -2.655044 4.116676 -0.597689
v -2.115184 4.925219 -0.597689
v -1.313098 5.508191 -0.597689
v -0.445795 5.775865 -0.597689
v 0.445795 5.775865 -0.597689
v 1.313098 5.508191 -0.597689
v 2.115184 4.925219 -0.597689
v 2.655044 4.116676 -0.597689
v 2.884104 3.265777 -0.597689
v 2.894473 2.395478 -0.597689
v 2.674122 1.496543 -0.597689
v 3.116743 0.051152 -0.597689
v 2.029721 0.053164 -0.597689
vt 0.000005 0.162409
vt 0.000000 0.000299
vt 0.029022 0.003480
vt 0.029025 0.159226
vt 0.057036 0.006125
vt 0.057039 0.156580
vt 0.082883 0.008809
vt 0.082886 0.153895
vt 0.109710 0.012154
vt 0.109711 0.150549
vt 0.141473 0.016345
vt 0.141473 0.146357
vt 0.175038 0.020362
vt 0.175037 0.142341
vt 0.207736 0.023936
vt 0.207735 0.138768
vt 0.240408 0.027511
vt 0.240406 0.135193
vt 0.273611 0.031321
vt 0.273608 0.131384
vt 0.307348 0.035284
vt 0.307345 0.127420
vt 0.342477 0.038452
vt 0.342474 0.124254
vt 0.376947 0.038556
vt 0.376945 0.124153
vt 0.408977 0.036356
vt 0.408976 0.126352
vt 0.693678 0.127459
vt 0.693681 0.035246
vt 0.727407 0.031324
vt 0.727405 0.131382
vt 0.658540 0.124329
vt 0.658544 0.038376
vt 0.760576 0.027547
vt 0.760574 0.135160
vt 0.624041 0.124208
vt 0.624044 0.038493
vt 0.793212 0.023981
vt 0.793210 0.138727
vt 0.591982 0.126375
vt 0.591983 0.036327
vt 0.825853 0.020387
vt 0.825852 0.142322
vt 0.859382 0.016307
vt 0.859382 0.146403
vt 0.891097 0.012019
vt 0.891098 0.150690
vt 0.917894 0.008569
vt 0.917897 0.154139
vt 0.943556 0.005810
vt 0.943559 0.156897
vt 0.970985 0.003177
vt 0.970989 0.159528
vt 0.999995 0.000000
vt 1.000000 0.162702
vt 0.141754 0.286177
vt 0.141753 0.146321
vt 0.173328 0.149293
vt 0.173328 0.283204
vt 0.203337 0.150507
vt 0.203336 0.281990
vt 0.230745 0.150833
vt 0.230744 0.281664
vt 0.256507 0.150887
vt 0.256506 0.281610
vt 0.281595 0.150909
vt 0.281594 0.281588
vt 0.305707 0.151075
vt 0.305706 0.281422
vt 0.328418 0.151699
vt 0.328417 0.280798
vt 0.351034 0.153085
vt 0.351032 0.279412
vt 0.374224 0.155283
vt 0.374223 0.277213
vt 0.397919 0.157955
vt 0.397918 0.274541
vt 0.422940 0.160015
vt 0.422939 0.272478
vt 0.447952 0.159717
vt 0.447950 0.272776
vt 0.471284 0.157986
vt 0.471281 0.274510
vt 0.703859 0.160396
vt 0.727278 0.159551
vt 0.727278 0.272947
vt 0.703857 0.272101
vt 0.749853 0.159007
vt 0.749854 0.273492
vt 0.679710 0.161321
vt 0.679708 0.271175
vt 0.772474 0.158820
vt 0.772477 0.273680
vt 0.654009 0.161844
vt 0.654007 0.270653
vt 0.796279 0.158861
vt 0.796285 0.273639
vt 0.628318 0.161305
vt 0.628316 0.271194
vt 0.821054 0.158951
vt 0.821064 0.273549
vt 0.604472 0.159955
vt 0.604469 0.272546
vt 0.846354 0.159004
vt 0.846367 0.273494
vt 0.873045 0.158870
vt 0.873061 0.273624
vt 0.901792 0.158112
vt 0.901813 0.274372
vt 0.932598 0.155905
vt 0.932621 0.276564
vt 0.439864 0.034130
vt 0.439864 0.128577
vt 0.470240 0.032693
vt 0.470240 0.130013
vt 0.500461 0.032209
vt 0.500462 0.130496
vt 0.530687 0.032689
vt 0.530687 0.130016
vt 0.561075 0.034119
vt 0.561075 0.128585
vt 0.493707 0.156553
vt 0.493704 0.275946
vt 0.515742 0.156033
vt 0.515738 0.276468
vt 0.537672 0.156347
vt 0.537669 0.276155
vt 0.559627 0.157220
vt 0.559623 0.275283
vt 0.581768 0.158473
vt 0.581766 0.274029
vt 0.260697 0.282551
vt 0.205574 0.282551
vt 0.205574 0.374683
vt 0.260697 0.374683
vt 0.212690 0.375107
vt 0.253517 0.375107
vt 0.083634 0.248240
vt 0.124468 0.248240
vt 0.131525 0.247815
vt 0.076379 0.247815
vt 0.131525 0.155616
vt 0.076379 0.155616
vt 0.253517 0.282129
vt 0.212690 0.282129
vt 0.124468 0.155195
vt 0.083634 0.155195
vt 0.131884 0.155047
vt 0.076788 0.155047
vt 0.141066 0.155616
vt 0.141066 0.247815
vt 0.131884 0.248389
vt 0.076788 0.248389
vt 0.067605 0.247815
vt 0.067605 0.155616
vt 0.205459 0.375256
vt 0.260565 0.375256
vt 0.196274 0.374683
vt 0.196274 0.282551
vt 0.205459 0.281982
vt 0.260565 0.281982
vt 0.269750 0.282551
vt 0.269750 0.374683
vt 0.195216 0.482220
vt 0.195218 0.486147
vt 0.182275 0.491975
vt 0.182058 0.488208
vt 0.169907 0.497354
vt 0.169475 0.493717
vt 0.195202 0.458661
vt 0.180757 0.465601
vt 0.158405 0.501962
vt 0.157753 0.498404
vt 0.166885 0.471898
vt 0.195200 0.454734
vt 0.180540 0.461833
vt 0.146045 0.505659
vt 0.145324 0.502128
vt 0.153843 0.477059
vt 0.166453 0.468261
vt 0.131103 0.508306
vt 0.130620 0.504751
vt 0.140999 0.480946
vt 0.153191 0.473502
vt 0.114896 0.509325
vt 0.114834 0.505740
vt 0.127721 0.483419
vt 0.140278 0.477415
vt 0.098736 0.508137
vt 0.099158 0.504566
vt 0.114466 0.484231
vt 0.127238 0.479864
vt 0.082492 0.504745
vt 0.083425 0.501265
vt 0.101690 0.483136
vt 0.114404 0.480646
vt 0.066030 0.499151
vt 0.067469 0.495876
vt 0.089025 0.480384
vt 0.102112 0.479564
vt 0.049888 0.490474
vt 0.051832 0.487509
vt 0.076106 0.476226
vt 0.089959 0.476903
vt 0.034604 0.477831
vt 0.037054 0.475273
vt 0.063493 0.469720
vt 0.077545 0.472951
vt 0.021444 0.462773
vt 0.024338 0.460687
vt 0.051752 0.459923
vt 0.065437 0.466755
vt 0.011673 0.446847
vt 0.014885 0.445267
vt 0.041700 0.448168
vt 0.054201 0.457364
vt 0.005016 0.430302
vt 0.008442 0.429248
vt 0.034158 0.435787
vt 0.044594 0.446081
vt 0.001199 0.413392
vt 0.004754 0.412863
vt 0.028997 0.422918
vt 0.037370 0.434207
vt -0.000000 0.396297
vt 0.003599 0.396297
vt 0.026087 0.409695
vt 0.032423 0.421862
vt 0.001199 0.379202
vt 0.004754 0.379730
vt 0.025195 0.396297
vt 0.029642 0.409167
vt 0.005016 0.362291
vt 0.008442 0.363346
vt 0.026087 0.382898
vt 0.028794 0.396297
vt 0.011673 0.345747
vt 0.014885 0.347326
vt 0.028997 0.369676
vt 0.029642 0.383426
vt 0.021444 0.329820
vt 0.024338 0.331907
vt 0.034158 0.356806
vt 0.032423 0.370731
vt 0.034604 0.314762
vt 0.037054 0.317320
vt 0.041700 0.344425
vt 0.037370 0.358386
vt 0.049888 0.302120
vt 0.051832 0.305084
vt 0.051752 0.332671
vt 0.044594 0.346512
vt 0.066030 0.293442
vt 0.067469 0.296717
vt 0.063493 0.322873
vt 0.054201 0.335229
vt 0.082492 0.287848
vt 0.083425 0.291328
vt 0.076106 0.316367
vt 0.065437 0.325838
vt 0.098736 0.284456
vt 0.099158 0.288028
vt 0.089025 0.312209
vt 0.077545 0.319642
vt 0.114896 0.283268
vt 0.114834 0.286853
vt 0.101690 0.309457
vt 0.089959 0.315690
vt 0.131103 0.284287
vt 0.130620 0.287843
vt 0.114466 0.308362
vt 0.102112 0.313029
vt 0.146045 0.286935
vt 0.145324 0.290465
vt 0.127721 0.309175
vt 0.114404 0.311947
vt 0.158405 0.290632
vt 0.157753 0.294189
vt 0.140999 0.311647
vt 0.127238 0.312730
vt 0.169833 0.295205
vt 0.169400 0.298841
vt 0.153843 0.315534
vt 0.140278 0.315178
vt 0.181979 0.300484
vt 0.181757 0.304248
vt 0.166802 0.320655
vt 0.153191 0.319092
vt 0.194922 0.306313
vt 0.194914 0.310236
vt 0.180426 0.326833
vt 0.166369 0.324291
vt 0.194871 0.333773
vt 0.180204 0.330597
vt 0.194863 0.337696
vt 0.375081 0.461216
vt 0.372491 0.483033
vt 0.359909 0.477524
vt 0.361211 0.454920
vt 0.388121 0.466376
vt 0.384212 0.487719
vt 0.372059 0.486669
vt 0.359692 0.481291
vt 0.346753 0.471537
vt 0.346767 0.447980
vt 0.361427 0.451152
vt 0.375513 0.457580
vt 0.400964 0.470263
vt 0.396639 0.491442
vt 0.383560 0.491276
vt 0.388773 0.462819
vt 0.346751 0.475463
vt 0.346770 0.444054
vt 0.414240 0.472735
vt 0.411341 0.494065
vt 0.395919 0.494972
vt 0.401684 0.466733
vt 0.427494 0.473547
vt 0.427126 0.495054
vt 0.410858 0.497620
vt 0.414723 0.469180
vt 0.440269 0.472452
vt 0.442800 0.493880
vt 0.427064 0.498639
vt 0.427555 0.469963
vt 0.452932 0.469701
vt 0.458531 0.490579
vt 0.443222 0.497451
vt 0.439847 0.468881
vt 0.465850 0.465543
vt 0.474485 0.485191
vt 0.459464 0.494059
vt 0.451998 0.466221
vt 0.478460 0.459038
vt 0.490121 0.476825
vt 0.475924 0.488466
vt 0.464410 0.462269
vt 0.490201 0.449242
vt 0.504897 0.464591
vt 0.492064 0.479789
vt 0.476517 0.456073
vt 0.500251 0.437488
vt 0.517612 0.450006
vt 0.507346 0.467149
vt 0.487751 0.446684
vt 0.507792 0.425109
vt 0.527063 0.434588
vt 0.520505 0.452092
vt 0.497358 0.435402
vt 0.512953 0.412241
vt 0.533505 0.418570
vt 0.530275 0.436167
vt 0.504581 0.423530
vt 0.515863 0.399020
vt 0.537193 0.402188
vt 0.536931 0.419625
vt 0.509528 0.411186
vt 0.516755 0.385623
vt 0.538348 0.385623
vt 0.540748 0.402716
vt 0.512308 0.398492
vt 0.515863 0.372226
vt 0.537193 0.369059
vt 0.541947 0.385623
vt 0.513156 0.385623
vt 0.512953 0.359005
vt 0.533505 0.352676
vt 0.540748 0.368531
vt 0.512308 0.372754
vt 0.507792 0.346137
vt 0.527063 0.336659
vt 0.536931 0.351621
vt 0.509528 0.360060
vt 0.500251 0.333758
vt 0.517612 0.321241
vt 0.530275 0.335079
vt 0.504581 0.347717
vt 0.490201 0.322004
vt 0.504897 0.306656
vt 0.520505 0.319154
vt 0.497358 0.335844
vt 0.478460 0.312209
vt 0.490121 0.294422
vt 0.507346 0.304098
vt 0.487751 0.324562
vt 0.465850 0.305703
vt 0.474485 0.286055
vt 0.492064 0.291457
vt 0.476517 0.315173
vt 0.452932 0.301546
vt 0.458531 0.280667
vt 0.475924 0.282781
vt 0.464410 0.308978
vt 0.440269 0.298794
vt 0.442800 0.277367
vt 0.459464 0.277187
vt 0.451998 0.305026
vt 0.427494 0.297699
vt 0.427126 0.276192
vt 0.443222 0.273795
vt 0.439847 0.302365
vt 0.414240 0.298511
vt 0.411341 0.277182
vt 0.427064 0.272608
vt 0.427555 0.301283
vt 0.400964 0.300984
vt 0.396639 0.279804
vt 0.410858 0.273627
vt 0.414723 0.302066
vt 0.388121 0.304870
vt 0.384212 0.283528
vt 0.395919 0.276274
vt 0.401684 0.304514
vt 0.375164 0.309991
vt 0.372566 0.288179
vt 0.383560 0.279970
vt 0.388773 0.308427
vt 0.361542 0.316168
vt 0.360211 0.293586
vt 0.372134 0.284544
vt 0.375597 0.313626
vt 0.347098 0.323107
vt 0.347055 0.299572
vt 0.359989 0.289822
vt 0.361763 0.319931
vt 0.347048 0.295650
vt 0.347106 0.327030
vn -0.004706 -0.005179 -0.999975
vn -0.795217 -0.595928 -0.111802
vn -0.909683 -0.402781 -0.101218
vn -0.007665 -0.003422 -0.999965
vn -0.795211 -0.595932 0.111823
vn -0.909682 -0.402781 0.101221
vn -0.917853 -0.383967 0.100577
vn -0.917853 -0.383967 -0.100574
vn -0.007807 -0.003294 -0.999964
vn -0.939680 -0.326992 -0.100387
vn -0.008180 -0.002885 -0.999962
vn -0.939680 -0.326992 0.100388
vn -0.969218 -0.225224 0.099450
vn -0.969218 -0.225224 -0.099449
vn -0.008949 -0.002096 -0.999958
vn -0.988319 -0.116339 -0.098440
vn -0.009607 -0.001129 -0.999953
vn -0.988319 -0.116339 0.098441
vn -0.995237 0.005177 0.097352
vn -0.995237 0.005177 -0.097352
vn -0.010018 0.000065 -0.999950
vn -0.985449 0.139276 -0.097433
vn -0.009970 0.001424 -0.999949
vn -0.985449 0.139276 0.097434
vn -0.959656 0.263672 0.097661
vn -0.959656 0.263672 -0.097660
vn -0.009677 0.002658 -0.999950
vn -0.911856 0.399142 -0.095942
vn -0.009474 0.004133 -0.999947
vn -0.911856 0.399142 0.095942
vn -0.823846 0.558899 0.094389
vn -0.823846 0.558899 -0.094391
vn -0.008780 0.005960 -0.999944
vn -0.713154 0.694511 -0.095216
vn -0.007469 0.007286 -0.999946
vn -0.713154 0.694511 0.095215
vn -0.592160 0.800144 0.095476
vn -0.592160 0.800144 -0.095477
vn -0.006187 0.008360 -0.999946
vn -0.449354 0.888190 -0.095917
vn -0.004674 0.009231 -0.999946
vn -0.449354 0.888190 0.095917
vn -0.297388 0.949880 0.096374
vn -0.297388 0.949880 -0.096374
vn -0.003069 0.009805 -0.999947
vn -0.145251 0.984645 -0.096836
vn -0.001484 0.010082 -0.999948
vn -0.145251 0.984645 0.096836
vn -0.000000 0.995259 0.097263
vn 0.000000 0.995259 -0.097263
vn 0.000000 0.010112 -0.999949
vn 0.145251 0.984645 -0.096836
vn 0.001484 0.010082 -0.999948
vn 0.145251 0.984645 0.096836
vn 0.297388 0.949880 0.096374
vn 0.297388 0.949880 -0.096374
vn 0.003069 0.009805 -0.999947
vn 0.449354 0.888190 -0.095917
vn 0.004674 0.009231 -0.999946
vn 0.449354 0.888190 0.095917
vn 0.592160 0.800144 0.095476
vn 0.592160 0.800144 -0.095477
vn 0.006187 0.008360 -0.999946
vn 0.713154 0.694511 -0.095216
vn 0.007469 0.007286 -0.999946
vn 0.713154 0.694511 0.095215
vn 0.823846 0.558899 0.094389
vn 0.823846 0.558899 -0.094391
vn 0.008780 0.005960 -0.999944
vn 0.911856 0.399142 -0.095942
vn 0.009474 0.004133 -0.999947
vn 0.911856 0.399142 0.095942
vn 0.959656 0.263671 0.097661
vn 0.959656 0.263671 -0.097660
vn 0.009677 0.002658 -0.999950
vn 0.985449 0.139276 -0.097433
vn 0.009970 0.001424 -0.999949
vn 0.985449 0.139276 0.097434
vn 0.995237 0.005177 0.097352
vn 0.995237 0.005177 -0.097352
vn 0.010018 0.000065 -0.999950
vn 0.988319 -0.116338 -0.098440
vn 0.009607 -0.001129 -0.999953
vn 0.988319 -0.116338 0.098441
vn 0.969218 -0.225224 0.099450
vn 0.969218 -0.225224 -0.099449
vn 0.008949 -0.002096 -0.999958
vn 0.939769 -0.326723 -0.100427
vn 0.008175 -0.002880 -0.999962
vn 0.939769 -0.326723 0.100428
vn 0.917976 -0.383649 0.100669
vn 0.917976 -0.383649 -0.100666
vn 0.007795 -0.003285 -0.999964
vn 0.909726 -0.402739 -0.100997
vn 0.007694 -0.003435 -0.999965
vn 0.909725 -0.402739 0.101000
vn 0.973735 0.213575 0.078901
vn 0.973733 0.213578 -0.078922
vn 0.900198 0.423610 -0.100983
vn 0.900198 0.423610 0.100989
vn 0.013143 0.001828 -0.999912
vn 0.008117 0.003782 -0.999960
vn 0.008111 0.003415 -0.999961
vn 0.914953 0.390389 -0.102264
vn 0.914952 0.390388 0.102270
vn 0.008022 0.002770 -0.999964
vn 0.938781 0.328346 -0.104304
vn 0.007675 0.001865 -0.999969
vn 0.965708 0.236721 -0.106631
vn 0.965708 0.236721 0.106639
vn 0.938780 0.328346 0.104311
vn 0.007372 0.000920 -0.999972
vn 0.986492 0.123172 -0.107994
vn 0.007136 -0.000072 -0.999974
vn 0.993954 -0.011848 -0.109155
vn 0.993953 -0.011847 0.109164
vn 0.986491 0.123172 0.108002
vn 0.007033 -0.001061 -0.999975
vn 0.982607 -0.150442 -0.108861
vn 0.006970 -0.001879 -0.999974
vn 0.960005 -0.258434 -0.107711
vn 0.960005 -0.258434 0.107718
vn 0.982606 -0.150442 0.108869
vn 0.006435 -0.002684 -0.999976
vn 0.918431 -0.380109 -0.109549
vn 0.005632 -0.003763 -0.999977
vn 0.826517 -0.551869 -0.110949
vn 0.826516 -0.551868 0.110960
vn 0.918430 -0.380109 0.109559
vn 0.004970 -0.004914 -0.999976
vn 0.705765 -0.700023 -0.108920
vn 0.004119 -0.005660 -0.999976
vn 0.584432 -0.804086 -0.109019
vn 0.584432 -0.804085 0.109028
vn 0.705764 -0.700023 0.108930
vn 0.003123 -0.006216 -0.999976
vn 0.446335 -0.888116 -0.109704
vn 0.002053 -0.006645 -0.999976
vn 0.293116 -0.949734 -0.109948
vn 0.293116 -0.949733 0.109958
vn 0.446335 -0.888115 0.109713
vn 0.000990 -0.006943 -0.999975
vn 0.139673 -0.984113 -0.109601
vn -0.000000 -0.007081 -0.999975
vn 0.000000 -0.994033 -0.109078
vn -0.000000 -0.994032 0.109087
vn 0.139673 -0.984112 0.109610
vn -0.000990 -0.006943 -0.999975
vn -0.139673 -0.984113 -0.109602
vn -0.002053 -0.006645 -0.999976
vn -0.293116 -0.949734 -0.109949
vn -0.293116 -0.949733 0.109958
vn -0.139673 -0.984112 0.109610
vn -0.003123 -0.006216 -0.999976
vn -0.446335 -0.888116 -0.109704
vn -0.004119 -0.005660 -0.999976
vn -0.584432 -0.804086 -0.109019
vn -0.584432 -0.804085 0.109028
vn -0.446335 -0.888115 0.109713
vn -0.004970 -0.004914 -0.999976
vn -0.705765 -0.700023 -0.108920
vn -0.005632 -0.003763 -0.999977
vn -0.826518 -0.551869 -0.110949
vn -0.826517 -0.551868 0.110960
vn -0.705764 -0.700023 0.108930
vn -0.006435 -0.002684 -0.999976
vn -0.918431 -0.380109 -0.109549
vn -0.006970 -0.001879 -0.999974
vn -0.960005 -0.258434 -0.107711
vn -0.960004 -0.258434 0.107719
vn -0.918430 -0.380109 0.109559
vn -0.007033 -0.001061 -0.999975
vn -0.982607 -0.150442 -0.108861
vn -0.007136 -0.000072 -0.999974
vn -0.993954 -0.011848 -0.109155
vn -0.993953 -0.011847 0.109164
vn -0.982606 -0.150442 0.108869
vn -0.007372 0.000920 -0.999972
vn -0.986492 0.123172 -0.107994
vn -0.007675 0.001865 -0.999969
vn -0.965708 0.236721 -0.106631
vn -0.965708 0.236721 0.106639
vn -0.986491 0.123172 0.108002
vn -0.008029 0.002769 -0.999964
vn -0.938912 0.327985 -0.104264
vn -0.008127 0.003416 -0.999961
vn -0.915199 0.389838 -0.102168
vn -0.915198 0.389837 0.102174
vn -0.938911 0.327984 0.104271
vn -0.008088 0.003767 -0.999960
vn -0.900223 0.423512 -0.101174
vn -0.900222 0.423512 0.101179
vn 0.008054 0.003391 0.999962
vn -0.007753 -0.003271 0.999965
vn -0.007611 -0.003398 0.999965
vn 0.008060 0.003755 0.999960
vn -0.004672 -0.005145 0.999976
vn 0.013053 0.001814 0.999913
vn 0.004573 -0.999989 0.000906
vn -0.003702 -0.999993 0.000841
vn -0.003702 -0.999993 -0.000841
vn 0.004573 -0.999989 -0.000906
vn -0.000217 -0.878549 -0.477651
vn 0.000843 -0.878226 -0.478246
vn 0.007621 0.001852 0.999969
vn -0.008887 -0.002082 0.999958
vn -0.008123 -0.002865 0.999963
vn 0.007966 0.002751 0.999964
vn 0.007086 -0.000071 0.999975
vn -0.009949 0.000064 0.999951
vn -0.009540 -0.001122 0.999954
vn 0.007320 0.000914 0.999973
vn 0.006921 -0.001866 0.999974
vn -0.009610 0.002639 0.999950
vn -0.009901 0.001414 0.999950
vn 0.006984 -0.001053 0.999975
vn 0.005593 -0.003736 0.999977
vn -0.008719 0.005919 0.999945
vn -0.009408 0.004105 0.999947
vn 0.006390 -0.002665 0.999976
vn 0.004090 -0.005621 0.999976
vn -0.006145 0.008302 0.999947
vn -0.007417 0.007235 0.999946
vn 0.004935 -0.004880 0.999976
vn 0.002039 -0.006598 0.999976
vn -0.003048 0.009737 0.999948
vn -0.004641 0.009167 0.999947
vn 0.003101 -0.006172 0.999976
vn -0.000000 -0.007032 0.999975
vn -0.000000 0.010042 0.999950
vn -0.001473 0.010012 0.999949
vn 0.000984 -0.006894 0.999976
vn -0.002039 -0.006598 0.999976
vn 0.003048 0.009737 0.999948
vn 0.001473 0.010012 0.999949
vn -0.000984 -0.006894 0.999976
vn -0.004090 -0.005621 0.999976
vn 0.006145 0.008302 0.999947
vn 0.004641 0.009167 0.999947
vn -0.003101 -0.006172 0.999976
vn -0.005593 -0.003736 0.999977
vn 0.008719 0.005919 0.999945
vn 0.007417 0.007235 0.999946
vn -0.004935 -0.004880 0.999976
vn -0.006921 -0.001866 0.999974
vn 0.009610 0.002639 0.999950
vn 0.009408 0.004105 0.999947
vn -0.006390 -0.002665 0.999976
vn -0.007086 -0.000071 0.999975
vn 0.009949 0.000064 0.999951
vn 0.009901 0.001414 0.999950
vn -0.006984 -0.001053 0.999975
vn -0.007621 0.001852 0.999969
vn 0.008887 -0.002082 0.999958
vn 0.009540 -0.001122 0.999954
vn -0.007320 0.000914 0.999973
vn -0.008070 0.003392 0.999962
vn 0.007741 -0.003263 0.999965
vn 0.008118 -0.002860 0.999963
vn -0.007973 0.002750 0.999964
vn -0.001557 -0.511274 -0.859416
vn 0.000417 -0.511382 -0.859353
vn 0.011434 -0.999931 -0.002589
vn -0.014240 -0.999895 -0.002802
vn 0.011434 -0.999931 0.002588
vn -0.014239 -0.999895 0.002801
vn -0.008032 0.003741 0.999961
vn 0.007640 -0.003411 0.999965
vn 0.000838 -0.876866 0.480734
vn -0.000214 -0.877190 0.480144
vn 0.000409 -0.508844 0.860859
vn -0.001543 -0.508740 0.860919
vn 0.004797 -0.005220 0.999975
vn -0.013183 0.001852 0.999911
vn 0.797233 -0.593484 0.110435
vn 0.797239 -0.593480 -0.110415
vn 0.004832 -0.005255 -0.999974
vn -0.013274 0.001867 -0.999910
vn -0.972899 0.217692 -0.077956
vn -0.972902 0.217688 0.077933
s 1
g pCube3
usemtl initialShadingGroup
f 100/165/1 103/166/2 249/167/3 106/168/4
f 103/1/2 102/2/5 104/3/6 249/4/3
f 249/4/3 104/3/6 35/5/7 105/6/8
f 106/168/4 249/167/3 105/169/8 200/170/9
f 200/170/9 105/169/8 250/173/10 109/174/11
f 105/6/8 35/5/7 107/7/12 250/8/10
f 250/8/10 107/7/12 36/9/13 108/10/14
f 109/174/11 250/173/10 108/178/14 207/179/15
f 207/179/15 108/178/14 251/182/16 112/183/17
f 108/10/14 36/9/13 110/11/18 251/12/16
f 251/12/16 110/11/18 37/13/19 111/14/20
f 112/183/17 251/182/16 111/186/20 211/187/21
f 211/187/21 111/186/20 252/190/22 115/191/23
f 111/14/20 37/13/19 113/15/24 252/16/22
f 252/16/22 113/15/24 38/17/25 114/18/26
f 115/191/23 252/190/22 114/194/26 215/195/27
f 215/195/27 114/194/26 253/198/28 118/199/29
f 114/18/26 38/17/25 116/19/30 253/20/28
f 253/20/28 116/19/30 39/21/31 117/22/32
f 118/199/29 253/198/28 117/202/32 219/203/33
f 219/203/33 117/202/32 254/206/34 121/207/35
f 117/22/32 39/21/31 119/23/36 254/24/34
f 254/24/34 119/23/36 40/25/37 120/26/38
f 121/207/35 254/206/34 120/210/38 223/211/39
f 223/211/39 120/210/38 255/214/40 124/215/41
f 120/26/38 40/25/37 122/27/42 255/28/40
f 255/28/40 122/27/42 41/113/43 123/114/44
f 124/215/41 255/214/40 123/218/44 227/219/45
f 227/219/45 123/218/44 256/222/46 127/223/47
f 123/114/44 41/113/43 125/115/48 256/116/46
f 256/116/46 125/115/48 42/117/49 126/118/50
f 127/223/47 256/222/46 126/226/50 231/227/51
f 231/227/51 126/226/50 257/230/52 130/231/53
f 126/118/50 42/117/49 128/119/54 257/120/52
f 257/120/52 128/119/54 43/121/55 129/122/56
f 130/231/53 257/230/52 129/234/56 235/235/57
f 235/235/57 129/234/56 258/238/58 133/239/59
f 129/122/56 43/121/55 131/42/60 258/41/58
f 258/41/58 131/42/60 44/38/61 132/37/62
f 133/239/59 258/238/58 132/242/62 239/243/63
f 239/243/63 132/242/62 259/246/64 136/247/65
f 132/37/62 44/38/61 134/34/66 259/33/64
f 259/33/64 134/34/66 45/30/67 135/29/68
f 136/247/65 259/246/64 135/250/68 243/251/69
f 243/251/69 135/250/68 260/254/70 139/255/71
f 135/29/68 45/30/67 137/31/72 260/32/70
f 260/32/70 137/31/72 46/35/73 138/36/74
f 139/255/71 260/254/70 138/258/74 247/259/75
f 247/259/75 138/258/74 261/262/76 142/263/77
f 138/36/74 46/35/73 140/39/78 261/40/76
f 261/40/76 140/39/78 47/43/79 141/44/80
f 142/263/77 261/262/76 141/266/80 73/267/81
f 73/267/81 141/266/80 262/270/82 145/271/83
f 141/44/80 47/43/79 143/45/84 262/46/82
f 262/46/82 143/45/84 48/47/85 144/48/86
f 145/271/83 262/270/82 144/274/86 77/275/87
f 77/275/87 144/274/86 263/278/88 148/279/89
f 144/48/86 48/47/85 146/49/90 263/50/88
f 263/50/88 146/49/90 49/51/91 147/52/92
f 148/279/89 263/278/88 147/282/92 81/283/93
f 81/283/93 147/282/92 150/286/94 151/287/95
f 147/52/92 49/51/91 149/53/96 150/54/94
f 93/57/97 152/58/98 264/59/99 155/60/100
f 152/176/98 101/171/101 153/172/102 264/177/99
f 264/177/99 153/172/102 26/175/103 154/181/104
f 155/60/100 264/59/99 154/61/104 66/62/105
f 26/175/103 156/180/106 265/185/107 154/181/104
f 156/180/106 33/184/108 157/189/109 265/185/107
f 265/63/107 157/65/109 65/66/110 158/64/111
f 154/61/104 265/63/107 158/64/111 66/62/105
f 33/184/108 159/188/112 266/193/113 157/189/109
f 159/188/112 6/192/114 160/197/115 266/193/113
f 266/67/113 160/69/115 64/70/116 161/68/117
f 157/65/109 266/67/113 161/68/117 65/66/110
f 6/192/114 162/196/118 267/201/119 160/197/115
f 162/196/118 30/200/120 163/205/121 267/201/119
f 267/71/119 163/73/121 63/74/122 164/72/123
f 160/69/115 267/71/119 164/72/123 64/70/116
f 30/200/120 165/204/124 268/209/125 163/205/121
f 165/204/124 12/208/126 166/213/127 268/209/125
f 268/75/125 166/77/127 62/78/128 167/76/129
f 163/73/121 268/75/125 167/76/129 63/74/122
f 12/208/126 168/212/130 269/217/131 166/213/127
f 168/212/130 13/216/132 169/221/133 269/217/131
f 269/79/131 169/81/133 61/82/134 170/80/135
f 166/77/127 269/79/131 170/80/135 62/78/128
f 13/216/132 171/220/136 270/225/137 169/221/133
f 171/220/136 14/224/138 172/229/139 270/225/137
f 270/83/137 172/123/139 60/124/140 173/84/141
f 169/81/133 270/83/137 173/84/141 61/82/134
f 14/224/138 174/228/142 271/233/143 172/229/139
f 174/228/142 15/232/144 175/237/145 271/233/143
f 271/125/143 175/127/145 59/128/146 176/126/147
f 172/123/139 271/125/143 176/126/147 60/124/140
f 15/232/144 177/236/148 272/241/149 175/237/145
f 177/236/148 16/240/150 178/245/151 272/241/149
f 272/129/149 178/131/151 58/132/152 179/130/153
f 175/127/145 272/129/149 179/130/153 59/128/146
f 16/240/150 180/244/154 273/249/155 178/245/151
f 180/244/154 17/248/156 181/253/157 273/249/155
f 273/103/155 181/99/157 57/100/158 182/104/159
f 178/131/151 273/103/155 182/104/159 58/132/152
f 17/248/156 183/252/160 274/257/161 181/253/157
f 183/252/160 11/256/162 184/261/163 274/257/161
f 274/95/161 184/91/163 56/92/164 185/96/165
f 181/99/157 274/95/161 185/96/165 57/100/158
f 11/256/162 186/260/166 275/265/167 184/261/163
f 186/260/166 28/264/168 187/269/169 275/265/167
f 275/85/167 187/86/169 55/87/170 188/88/171
f 184/91/163 275/85/167 188/88/171 56/92/164
f 28/264/168 189/268/172 276/273/173 187/269/169
f 189/268/172 7/272/174 190/277/175 276/273/173
f 276/89/173 190/93/175 54/94/176 191/90/177
f 187/86/169 276/89/173 191/90/177 55/87/170
f 7/272/174 192/276/178 277/281/179 190/277/175
f 192/276/178 31/280/180 193/285/181 277/281/179
f 277/97/179 193/101/181 53/102/182 194/98/183
f 190/93/175 277/97/179 194/98/183 54/94/176
f 31/280/180 195/284/184 278/289/185 193/285/181
f 195/284/184 25/288/186 196/293/187 278/289/185
f 278/105/185 196/107/187 52/108/188 197/106/189
f 193/101/181 278/105/185 197/106/189 53/102/182
f 25/288/186 198/292/190 199/295/191 196/293/187
f 196/107/187 199/109/191 68/110/192 52/108/188
f 101/171/101 100/165/1 106/168/4 153/172/102
f 153/172/102 106/168/4 200/170/9 26/175/103
f 23/297/193 201/298/194 202/299/195 203/300/196
f 203/300/196 202/299/195 69/305/197 70/306/198
f 91/133/199 90/134/200 204/135/201 206/136/202
f 206/136/202 204/135/201 205/137/203 2/138/204
f 26/175/103 200/170/9 109/174/11 156/180/106
f 156/180/106 109/174/11 207/179/15 33/184/108
f 34/309/205 208/310/206 209/302/207 210/301/208
f 210/301/208 209/302/207 201/298/194 23/297/193
f 33/184/108 207/179/15 112/183/17 159/188/112
f 159/188/112 112/183/17 211/187/21 6/192/114
f 5/319/209 212/320/210 213/316/211 214/315/212
f 214/315/212 213/316/211 208/310/206 34/309/205
f 6/192/114 211/187/21 115/191/23 162/196/118
f 162/196/118 115/191/23 215/195/27 30/200/120
f 29/327/213 216/328/214 217/324/215 218/323/216
f 218/323/216 217/324/215 212/320/210 5/319/209
f 30/200/120 215/195/27 118/199/29 165/204/124
f 165/204/124 118/199/29 219/203/33 12/208/126
f 9/335/217 220/336/218 221/332/219 222/331/220
f 222/331/220 221/332/219 216/328/214 29/327/213
f 12/208/126 219/203/33 121/207/35 168/212/130
f 168/212/130 121/207/35 223/211/39 13/216/132
f 22/343/221 224/344/222 225/340/223 226/339/224
f 226/339/224 225/340/223 220/336/218 9/335/217
f 13/216/132 223/211/39 124/215/41 171/220/136
f 171/220/136 124/215/41 227/219/45 14/224/138
f 21/351/225 228/352/226 229/348/227 230/347/228
f 230/347/228 229/348/227 224/344/222 22/343/221
f 14/224/138 227/219/45 127/223/47 174/228/142
f 174/228/142 127/223/47 231/227/51 15/232/144
f 20/359/229 232/360/230 233/356/231 234/355/232
f 234/355/232 233/356/231 228/352/226 21/351/225
f 15/232/144 231/227/51 130/231/53 177/236/148
f 177/236/148 130/231/53 235/235/57 16/240/150
f 19/367/233 236/368/234 237/364/235 238/363/236
f 238/363/236 237/364/235 232/360/230 20/359/229
f 16/240/150 235/235/57 133/239/59 180/244/154
f 180/244/154 133/239/59 239/243/63 17/248/156
f 18/375/237 240/376/238 241/372/239 242/371/240
f 242/371/240 241/372/239 236/368/234 19/367/233
f 17/248/156 239/243/63 136/247/65 183/252/160
f 183/252/160 136/247/65 243/251/69 11/256/162
f 10/383/241 244/384/242 245/380/243 246/379/244
f 246/379/244 245/380/243 240/376/238 18/375/237
f 11/256/162 243/251/69 139/255/71 186/260/166
f 186/260/166 139/255/71 247/259/75 28/264/168
f 27/391/245 248/392/246 71/388/247 72/387/248
f 72/387/248 71/388/247 244/384/242 10/383/241
f 28/264/168 247/259/75 142/263/77 189/268/172
f 189/268/172 142/263/77 73/267/81 7/272/174
f 8/399/249 74/400/250 75/396/251 76/395/252
f 76/395/252 75/396/251 248/392/246 27/391/245
f 7/272/174 73/267/81 145/271/83 192/276/178
f 192/276/178 145/271/83 77/275/87 31/280/180
f 32/407/253 78/408/254 79/404/255 80/403/256
f 80/403/256 79/404/255 74/400/250 8/399/249
f 31/280/180 77/275/87 148/279/89 195/284/184
f 195/284/184 148/279/89 81/283/93 25/288/186
f 24/415/257 82/416/258 83/412/259 84/411/260
f 84/411/260 83/412/259 78/408/254 32/407/253
f 25/288/186 81/283/93 151/287/95 198/292/190
f 3/139/261 85/140/262 86/141/263 87/142/264
f 87/142/264 86/141/263 50/143/265 51/144/266
f 67/419/267 88/420/268 82/416/258 24/415/257
f 1/145/269 89/146/270 90/134/200 91/133/199
f 104/304/6 102/313/5 69/305/197 202/299/195
f 35/303/7 104/304/6 202/299/195 201/298/194
f 107/311/12 35/303/7 201/298/194 209/302/207
f 36/317/13 107/311/12 209/302/207 208/310/206
f 110/321/18 36/317/13 208/310/206 213/316/211
f 37/325/19 110/321/18 213/316/211 212/320/210
f 113/329/24 37/325/19 212/320/210 217/324/215
f 38/333/25 113/329/24 217/324/215 216/328/214
f 116/337/30 38/333/25 216/328/214 221/332/219
f 39/341/31 116/337/30 221/332/219 220/336/218
f 119/345/36 39/341/31 220/336/218 225/340/223
f 40/349/37 119/345/36 225/340/223 224/344/222
f 122/353/42 40/349/37 224/344/222 229/348/227
f 41/357/43 122/353/42 229/348/227 228/352/226
f 125/361/48 41/357/43 228/352/226 233/356/231
f 42/365/49 125/361/48 233/356/231 232/360/230
f 128/369/54 42/365/49 232/360/230 237/364/235
f 43/373/55 128/369/54 237/364/235 236/368/234
f 131/377/60 43/373/55 236/368/234 241/372/239
f 44/381/61 131/377/60 241/372/239 240/376/238
f 134/385/66 44/381/61 240/376/238 245/380/243
f 45/389/67 134/385/66 245/380/243 244/384/242
f 137/393/72 45/389/67 244/384/242 71/388/247
f 46/397/73 137/393/72 71/388/247 248/392/246
f 140/401/78 46/397/73 248/392/246 75/396/251
f 47/405/79 140/401/78 75/396/251 74/400/250
f 143/409/84 47/405/79 74/400/250 79/404/255
f 48/413/85 143/409/84 79/404/255 78/408/254
f 146/417/90 48/413/85 78/408/254 83/412/259
f 49/421/91 146/417/90 83/412/259 82/416/258
f 88/420/268 149/425/96 49/421/91 82/416/258
f 51/144/266 50/143/265 92/147/271 4/148/272
f 52/422/188 68/426/192 67/419/267 24/415/257
f 197/418/189 52/422/188 24/415/257 84/411/260
f 53/414/182 197/418/189 84/411/260 32/407/253
f 194/410/183 53/414/182 32/407/253 80/403/256
f 54/406/176 194/410/183 80/403/256 8/399/249
f 191/402/177 54/406/176 8/399/249 76/395/252
f 55/398/170 191/402/177 76/395/252 27/391/245
f 188/394/171 55/398/170 27/391/245 72/387/248
f 56/390/164 188/394/171 72/387/248 10/383/241
f 185/386/165 56/390/164 10/383/241 246/379/244
f 57/382/158 185/386/165 246/379/244 18/375/237
f 182/378/159 57/382/158 18/375/237 242/371/240
f 58/374/152 182/378/159 242/371/240 19/367/233
f 179/370/153 58/374/152 19/367/233 238/363/236
f 59/366/146 179/370/153 238/363/236 20/359/229
f 176/362/147 59/366/146 20/359/229 234/355/232
f 60/358/140 176/362/147 234/355/232 21/351/225
f 173/354/141 60/358/140 21/351/225 230/347/228
f 61/350/134 173/354/141 230/347/228 22/343/221
f 170/346/135 61/350/134 22/343/221 226/339/224
f 62/342/128 170/346/135 226/339/224 9/335/217
f 167/338/129 62/342/128 9/335/217 222/331/220
f 63/334/122 167/338/129 222/331/220 29/327/213
f 164/330/123 63/334/122 29/327/213 218/323/216
f 64/326/116 164/330/123 218/323/216 5/319/209
f 161/322/117 64/326/116 5/319/209 214/315/212
f 65/318/110 161/322/117 214/315/212 34/309/205
f 158/312/111 65/318/110 34/309/205 210/301/208
f 66/308/105 158/312/111 210/301/208 23/297/193
f 70/306/198 93/314/97 155/307/100 203/300/196
f 203/300/196 155/307/100 66/308/105 23/297/193
f 4/148/272 92/147/271 94/149/273 95/150/274
f 95/423/274 94/424/273 88/420/268 67/419/267
f 96/427/275 149/425/96 88/420/268 94/424/273
f 50/143/265 96/151/275 94/149/273 92/147/271
f 151/287/95 150/286/94 279/290/276 97/291/277
f 150/54/94 149/53/96 96/55/275 279/56/276
f 279/152/276 96/151/275 50/143/265 86/141/263
f 97/153/277 279/152/276 86/141/263 85/140/262
f 198/292/190 151/287/95 97/291/277 98/294/278
f 98/154/278 97/153/277 85/140/262 3/139/261
f 68/110/192 199/109/191 280/111/279 99/112/280
f 199/295/191 198/292/190 98/294/278 280/296/279
f 280/155/279 98/154/278 3/139/261 87/142/264
f 99/156/280 280/155/279 87/142/264 51/144/266
f 67/419/267 68/426/192 99/428/280 95/423/274
f 95/150/274 99/156/280 51/144/266 4/148/272
f 2/138/204 205/137/203 100/157/1 101/158/101
f 205/137/203 204/135/201 103/159/2 100/157/1
f 204/135/201 90/134/200 102/160/5 103/159/2
f 69/161/197 102/160/5 90/134/200 89/146/270
f 70/162/198 69/161/197 89/146/270 1/145/269
f 91/133/199 93/163/97 70/162/198 1/145/269
f 2/138/204 101/158/101 152/164/98 206/136/202
f 206/136/202 152/164/98 93/163/97 91/133/199
