# This file uses centimeters as units for non-parametric coordinates.

mtllib inner tri.mtl
g default
v -0.539471 4.410784 -0.240173
v -0.539471 4.410784 0.240173
v -0.539471 4.519115 0.141170
v -0.539471 4.559219 -0.000000
v -0.539471 4.519115 -0.141170
v 0.539471 4.410784 -0.240173
v 0.539471 4.519115 -0.141170
v 0.539471 4.559219 -0.000000
v 0.539471 4.519115 0.141170
v 0.539471 4.410784 0.240173
v -0.539471 0.087183 2.161800
v -0.539471 0.120026 2.254922
v -0.539471 0.204022 2.306834
v -0.539471 0.302001 2.294565
v 0.539471 0.087183 2.161800
v 0.539471 0.302001 2.294565
v 0.539471 0.204022 2.306834
v 0.539471 0.120026 2.254922
v -0.539471 0.302001 -2.294565
v -0.539471 0.204022 -2.306834
v -0.539471 0.120026 -2.254922
v -0.539471 0.087183 -2.161800
v 0.539471 0.302001 -2.294565
v 0.539471 0.087183 -2.161800
v 0.539471 0.120026 -2.254922
v 0.539471 0.204022 -2.306834
v 0.539471 1.834268 0.000000
v -0.539471 1.834268 0.000000
vt 0.023365 0.434679
vt 0.023365 0.228051
vt 0.672527 0.230922
vt 0.672532 0.431790
vt 0.034196 0.213180
vt 0.034193 0.010039
vt 0.674777 0.006585
vt 0.674774 0.216618
vt 0.037874 0.648804
vt 0.037874 0.436554
vt 0.619689 0.436554
vt 0.619689 0.648804
vt 0.017594 0.219336
vt 0.017598 0.003869
vt 0.000000 0.222192
vt 0.000006 0.001006
vt 0.707319 0.440709
vt 0.689491 0.437814
vt 0.689493 0.224913
vt 0.707323 0.222023
vt 0.011937 0.438624
vt 0.011938 0.224104
vt 0.000000 0.440538
vt 0.000002 0.222189
vt 0.631577 0.650693
vt 0.631577 0.434665
vt 0.025988 0.650693
vt 0.025988 0.434665
vt 0.697562 0.223208
vt 0.685868 0.220913
vt 0.685864 0.002292
vt 0.697567 0.000000
vt 0.651748 0.431891
vt 0.964239 0.588231
vt 0.767529 0.608017
vt 0.970472 0.597436
vt 0.973604 0.608017
vt 0.970473 0.618599
vt 0.964239 0.627803
vt 0.651748 0.784144
vt 0.633459 0.772145
vt 0.633459 0.443889
vt 0.644547 0.781997
vt 0.638188 0.777973
vt 0.638188 0.438061
vt 0.644547 0.434038
vt 0.332671 0.840985
vt 0.016529 0.999056
vt 0.134426 0.822505
vt 0.341006 0.833367
vt 0.344092 0.822505
vt 0.341006 0.811643
vt 0.332671 0.804026
vt 0.016529 0.645955
vt 0.000000 0.988841
vt 0.000000 0.656170
vt 0.008990 0.645011
vt 0.002527 0.649005
vt 0.002527 0.996006
vt 0.008990 1.000000
vn 0.000000 0.440935 0.897539
vn 0.000000 0.440935 0.897539
vn 0.000000 0.454773 0.890607
vn 0.000000 0.454773 0.890607
vn 0.000000 0.454773 -0.890607
vn 0.000000 0.454773 -0.890607
vn 0.000000 0.440935 -0.897539
vn 0.000000 0.440935 -0.897539
vn 0.000000 -0.999972 -0.007436
vn 0.000000 -0.999972 -0.007436
vn 0.000000 -0.999972 0.007436
vn 0.000000 -0.999972 0.007436
vn 0.000000 0.850651 -0.525731
vn 0.000000 0.850651 -0.525731
vn 0.000000 1.000000 0.000000
vn 0.000000 1.000000 0.000000
vn 0.000000 0.850651 0.525730
vn 0.000000 0.850651 0.525731
vn 0.000000 -0.212860 0.977083
vn 0.000000 -0.212859 0.977083
vn 0.000000 -0.778736 0.627352
vn 0.000000 -0.778736 0.627352
vn 0.000000 -0.778736 -0.627352
vn 0.000000 -0.778736 -0.627352
vn 0.000000 -0.212859 -0.977083
vn 0.000000 -0.212859 -0.977083
vn 1.000000 0.000000 0.000000
vn 1.000000 0.000000 0.000000
vn 1.000000 0.000000 0.000000
vn 1.000000 0.000000 0.000000
vn 1.000000 0.000000 0.000000
vn 1.000000 0.000000 0.000000
vn 1.000000 0.000000 0.000000
vn 1.000000 0.000000 0.000000
vn 1.000000 0.000000 0.000000
vn 1.000000 0.000000 0.000000
vn 1.000000 0.000000 0.000000
vn 1.000000 0.000000 0.000000
vn 1.000000 0.000000 -0.000001
vn 1.000000 0.000000 -0.000001
vn 1.000000 0.000000 -0.000001
vn 1.000000 -0.000000 -0.000000
vn 1.000000 -0.000000 -0.000000
vn 1.000000 -0.000000 -0.000000
vn 1.000000 0.000000 0.000000
vn 1.000000 0.000000 0.000000
vn 1.000000 0.000000 0.000000
vn 1.000000 0.000000 -0.000001
vn 1.000000 0.000000 -0.000001
vn 1.000000 0.000000 -0.000001
vn 1.000000 0.000000 0.000000
vn 1.000000 0.000000 0.000000
vn 1.000000 0.000000 0.000000
vn 1.000000 0.000000 0.000000
vn 1.000000 0.000000 0.000000
vn 1.000000 0.000000 0.000000
vn 1.000000 0.000000 0.000000
vn 1.000000 0.000000 0.000000
vn 1.000000 0.000000 0.000000
vn 1.000000 0.000000 0.000000
vn 1.000000 0.000000 0.000000
vn 1.000000 0.000000 0.000000
vn 1.000000 0.000000 0.000000
vn 1.000000 0.000000 0.000000
vn 1.000000 0.000000 0.000000
vn -1.000000 0.000000 0.000000
vn -1.000000 0.000000 0.000000
vn -1.000000 0.000000 0.000000
vn -1.000000 0.000000 0.000000
vn -1.000000 0.000000 0.000000
vn -1.000000 0.000000 0.000000
vn -1.000000 -0.000000 0.000000
vn -1.000000 -0.000000 0.000000
vn -1.000000 -0.000000 0.000000
vn -1.000000 0.000000 0.000000
vn -1.000000 0.000000 0.000000
vn -1.000000 0.000000 0.000000
vn -1.000000 0.000000 0.000001
vn -1.000000 0.000000 0.000001
vn -1.000000 0.000000 0.000001
vn -1.000000 0.000000 0.000000
vn -1.000000 0.000000 0.000000
vn -1.000000 0.000000 0.000000
vn -1.000000 0.000000 0.000000
vn -1.000000 0.000000 0.000000
vn -1.000000 0.000000 0.000000
vn -1.000000 0.000001 0.000001
vn -1.000000 0.000001 0.000001
vn -1.000000 0.000001 0.000001
vn -1.000000 0.000000 0.000000
vn -1.000000 0.000000 0.000000
vn -1.000000 0.000000 0.000000
vn -1.000000 0.000000 0.000000
vn -1.000000 0.000000 0.000000
vn -1.000000 0.000000 0.000000
vn -1.000000 0.000000 0.000000
vn -1.000000 0.000000 0.000000
vn -1.000000 0.000000 0.000000
vn -1.000000 0.000000 0.000000
vn -1.000000 0.000000 0.000000
vn -1.000000 0.000000 0.000000
vn -1.000000 0.000000 0.000000
vn -1.000000 0.000000 0.000000
vn -1.000000 0.000000 0.000000
s 1
g polySurface1 pCube1
usemtl initialShadingGroup
f 14/1/1 16/2/2 10/3/3 2/4/4
f 1/5/5 6/6/6 23/7/7 19/8/8
f 22/9/9 24/10/10 15/11/11 11/12/12
f 1/5/5 5/13/13 7/14/14 6/6/6
f 5/13/13 4/15/15 8/16/16 7/14/14
f 4/17/15 3/18/17 9/19/18 8/20/16
f 3/18/17 2/4/4 10/3/3 9/19/18
f 14/1/1 13/21/19 17/22/20 16/2/2
f 13/21/19 12/23/21 18/24/22 17/22/20
f 12/25/21 11/12/12 15/11/11 18/26/22
f 22/9/9 21/27/23 25/28/24 24/10/10
f 21/29/23 20/30/25 26/31/26 25/32/24
f 20/30/25 19/8/8 23/7/7 26/31/26
s off
f 23/33/27 6/34/28 27/35/29
f 6/34/30 7/36/31 27/35/32
f 7/36/33 8/37/34 27/35/35
f 8/37/36 9/38/37 27/35/38
f 9/38/39 10/39/40 27/35/41
f 10/39/42 16/40/43 27/35/44
f 15/41/45 24/42/46 27/35/47
f 16/40/48 17/43/49 27/35/50
f 17/43/51 18/44/52 27/35/53
f 18/44/54 15/41/55 27/35/56
f 24/42/57 25/45/58 27/35/59
f 25/45/60 26/46/61 27/35/62
f 26/46/63 23/33/64 27/35/65
f 1/47/66 19/48/67 28/49/68
f 5/50/69 1/47/70 28/49/71
f 4/51/72 5/50/73 28/49/74
f 3/52/75 4/51/76 28/49/77
f 2/53/78 3/52/79 28/49/80
f 14/54/81 2/53/82 28/49/83
f 22/55/84 11/56/85 28/49/86
f 13/57/87 14/54/88 28/49/89
f 12/58/90 13/57/91 28/49/92
f 11/56/93 12/58/94 28/49/95
f 21/59/96 22/55/97 28/49/98
f 20/60/99 21/59/100 28/49/101
f 19/48/102 20/60/103 28/49/104
