# This file uses centimeters as units for non-parametric coordinates.

mtllib outer tri.mtl
g default
v -0.605061 0.249907 2.573544
v 0.605061 0.249907 2.573544
v 0.605061 4.858247 0.269374
v -0.605061 4.858247 0.269374
v -0.605061 4.858247 -0.269374
v 0.605061 4.858247 -0.269374
v 0.605061 0.249907 -2.573544
v -0.605061 0.249907 -2.573544
v -0.605061 4.979749 -0.158334
v 0.605061 4.979749 -0.158334
v -0.605061 5.024729 -0.000000
v 0.605061 5.024729 -0.000000
v -0.605061 4.979749 0.158334
v 0.605061 4.979749 0.158334
v -0.605061 0.003898 2.587305
v 0.605061 0.003898 2.587305
v -0.605061 0.003898 -2.587305
v 0.605061 0.003898 -2.587305
v -0.605061 0.369452 2.968219
v 0.605061 0.369452 2.968219
v 0.605061 5.092921 0.610898
v -0.605061 5.092921 0.610898
v -0.605061 5.092921 -0.610898
v 0.605061 5.092921 -0.610898
v 0.605061 0.369452 -2.968219
v -0.605061 0.369452 -2.968219
v -0.605061 5.322099 -0.369918
v 0.605061 5.322099 -0.369918
v -0.605061 5.427185 -0.000000
v 0.605061 5.427185 -0.000000
v -0.605061 5.322099 0.369918
v 0.605061 5.322099 0.369918
v -0.605061 0.003897 2.972822
v 0.605061 0.003897 2.972822
v -0.605061 0.003897 -2.972822
v 0.605061 0.003897 -2.972822
vt 0.675422 0.649886
vt 0.938417 0.518323
vt 0.951990 0.538037
vt 0.682287 0.672556
vt 0.945385 0.512103
vt 0.965037 0.524149
vt 0.661404 0.650772
vt 0.661432 0.672757
vt 0.948011 0.503111
vt 0.971015 0.503029
vt 0.945588 0.493947
vt 0.964950 0.481983
vt 0.938417 0.487784
vt 0.951990 0.468071
vt 0.675423 0.356221
vt 0.682288 0.333550
vt 0.661404 0.355335
vt 0.661432 0.333349
vt 0.875281 0.815028
vt 0.612288 0.683466
vt 0.619153 0.660795
vt 0.888855 0.795314
vt 0.598270 0.682579
vt 0.598298 0.660594
vt 0.882453 0.821190
vt 0.901815 0.809227
vt 0.884875 0.830355
vt 0.907879 0.830272
vt 0.882250 0.839346
vt 0.901902 0.851392
vt 0.875281 0.845566
vt 0.888855 0.865280
vt 0.612288 0.977128
vt 0.619153 0.999799
vt 0.598270 0.978015
vt 0.598298 1.000000
vt 0.041209 0.341422
vt 0.000000 0.343653
vt 0.719140 0.000000
vt 0.041174 0.172002
vt 0.679126 0.171874
vt 0.679126 0.002490
vt 0.076253 0.334764
vt 0.076282 0.178615
vt 0.645453 0.165515
vt 0.645444 0.008889
vt 0.643112 0.502849
vt 0.641906 0.335284
vt 0.658756 0.333292
vt 0.001366 0.673135
vt 0.626599 0.499006
vt 0.625406 0.339136
vt 0.016299 0.504111
vt 0.017620 0.671292
vt 0.032243 0.507641
vt 0.033509 0.667594
vt 0.744029 0.000000
vt 0.744029 0.303297
vt 0.721532 0.303297
vt 0.721532 0.000000
vt 0.745583 0.000000
vt 0.768080 0.000000
vt 0.768080 0.303306
vt 0.745583 0.303306
vt 0.037330 0.164072
vt 0.037359 0.010528
vt 0.000000 0.169226
vt 0.000040 0.005356
vt 0.682306 0.180024
vt 0.682270 0.333164
vt 0.720673 0.338880
vt 0.720724 0.174324
vt 0.619519 0.660331
vt 0.620327 0.506172
vt 0.644710 0.503084
vt 0.643780 0.663770
vt 0.040151 0.500559
vt 0.041278 0.346512
vt 0.015032 0.503770
vt 0.016073 0.342838
vt 0.719148 0.174325
vt 0.000006 0.169821
vt 0.659924 0.504072
vt 0.000000 0.502869
vn 0.000000 0.420988 0.907066
vn 0.000000 0.420988 0.907066
vn 0.000000 0.464576 0.885533
vn 0.000000 0.464576 0.885533
vn 0.000000 0.464576 -0.885533
vn 0.000000 0.464576 -0.885533
vn 0.000000 0.420988 -0.907066
vn 0.000000 0.420988 -0.907066
vn 0.000000 0.877263 -0.480010
vn 0.000000 0.877263 -0.480010
vn 0.000000 1.000000 0.000000
vn 0.000000 1.000000 0.000000
vn 0.000000 0.877263 0.480010
vn 0.000000 0.877263 0.480010
vn 0.000000 0.012591 0.999921
vn 0.000000 0.012591 0.999921
vn 0.000000 0.012591 -0.999921
vn 0.000000 0.012591 -0.999921
vn 0.000000 -0.430893 -0.902403
vn 0.000000 -0.454773 -0.890607
vn 0.000000 -0.454773 -0.890607
vn 0.000000 -0.430893 -0.902403
vn 0.000000 -0.454773 0.890607
vn 0.000000 -0.430893 0.902403
vn 0.000000 -0.430893 0.902403
vn 0.000000 -0.454773 0.890607
vn 0.000000 -0.850651 0.525731
vn 0.000000 -0.850651 0.525731
vn 0.000000 -1.000000 0.000000
vn 0.000000 -1.000000 0.000000
vn 0.000000 -0.850651 -0.525731
vn 0.000000 -0.850651 -0.525731
vn 0.000000 -0.055849 -0.998439
vn 0.000000 -0.055849 -0.998439
vn 0.000000 -0.055849 0.998439
vn 0.000000 -0.055849 0.998439
vn 1.000000 0.000000 0.000000
vn 1.000000 0.000000 0.000000
vn 1.000000 0.000000 0.000000
vn 1.000000 0.000000 0.000000
vn -1.000000 0.000000 0.000000
vn -1.000000 0.000000 0.000000
vn -1.000000 0.000000 0.000000
vn -1.000000 0.000000 0.000000
vn 1.000000 0.000000 0.000000
vn 1.000000 0.000000 0.000000
vn 1.000000 0.000000 0.000000
vn 1.000000 0.000000 0.000000
vn -1.000000 0.000000 0.000000
vn -1.000000 0.000000 0.000000
vn -1.000000 0.000000 0.000000
vn -1.000000 0.000000 0.000000
vn -1.000000 0.000000 0.000000
vn -1.000000 0.000000 0.000000
vn 1.000000 0.000000 0.000000
vn 1.000000 0.000000 0.000000
vn -1.000000 -0.000000 0.000000
vn -1.000000 -0.000000 0.000000
vn 1.000000 0.000000 0.000000
vn 1.000000 0.000000 0.000000
vn -1.000000 0.000000 0.000000
vn -1.000000 0.000000 0.000000
vn 1.000000 0.000000 0.000000
vn 1.000000 0.000000 0.000000
vn -1.000000 0.000000 0.000000
vn -1.000000 0.000000 0.000000
vn 1.000000 0.000000 0.000000
vn 1.000000 0.000000 0.000000
vn -1.000000 0.000000 0.000000
vn -1.000000 0.000000 0.000000
vn 1.000000 0.000000 0.000000
vn 1.000000 0.000000 0.000000
vn 0.000000 -1.000000 0.000002
vn 0.000000 -1.000000 0.000002
vn 0.000000 -1.000000 0.000002
vn 0.000000 -1.000000 0.000002
vn 0.000000 -1.000000 -0.000002
vn 0.000000 -1.000000 -0.000002
vn 0.000000 -1.000000 -0.000002
vn 0.000000 -1.000000 -0.000002
s 1
g polySurface2 pCube1
usemtl initialShadingGroup
f 19/65/1 20/66/2 21/46/3 22/45/4
f 23/43/5 24/44/6 25/69/7 26/70/8
f 23/43/5 27/37/9 28/40/10 24/44/6
f 27/37/9 29/38/11 30/82/12 28/40/10
f 29/81/11 31/41/13 32/42/14 30/39/12
f 31/41/13 22/45/4 21/46/3 32/42/14
f 19/65/1 33/67/15 34/68/16 20/66/2
f 35/71/17 26/70/8 25/69/7 36/72/18
s 3
f 1/73/19 4/56/20 3/55/21 2/74/22
f 5/51/23 8/77/24 7/78/25 6/52/26
f 5/51/23 6/52/26 10/48/27 9/47/28
f 9/47/28 10/48/27 12/49/29 11/83/30
f 11/50/30 12/84/29 14/53/31 13/54/32
f 13/54/32 14/53/31 3/55/21 4/56/20
f 1/73/19 2/74/22 16/75/33 15/76/34
f 17/79/35 18/80/36 7/78/25 8/77/24
s 5
f 2/1/37 3/2/38 21/3/39 20/4/40
s 6
f 4/19/41 1/20/42 19/21/43 22/22/44
s 5
f 6/13/45 7/15/46 25/16/47 24/14/48
s 6
f 8/33/49 5/31/50 23/32/51 26/34/52
f 5/31/50 9/29/53 27/30/54 23/32/51
s 5
f 10/11/55 6/13/45 24/14/48 28/12/56
s 6
f 9/29/53 11/27/57 29/28/58 27/30/54
s 5
f 12/9/59 10/11/55 28/12/56 30/10/60
s 6
f 11/27/57 13/25/61 31/26/62 29/28/58
s 5
f 14/5/63 12/9/59 30/10/60 32/6/64
s 6
f 13/25/61 4/19/41 22/22/44 31/26/62
s 5
f 3/2/38 14/5/63 32/6/64 21/3/39
s 6
f 1/20/42 15/23/65 33/24/66 19/21/43
s 5
f 16/7/67 2/1/37 20/4/40 34/8/68
s 6
f 17/35/69 8/33/49 26/34/52 35/36/70
s 5
f 7/15/46 18/17/71 36/18/72 25/16/47
s off
f 18/57/73 17/58/74 35/59/75 36/60/76
f 16/61/77 34/62/78 33/63/79 15/64/80
