# This file uses centimeters as units for non-parametric coordinates.

mtllib rect.mtl
g default
v -3.761505 1.521272 0.500000
v 3.761505 1.521272 0.500000
v 3.761505 1.521272 -0.500000
v -3.761505 1.521272 -0.500000
v 3.761505 -0.025588 0.500000
v 3.761505 -0.025588 -0.500000
v -3.761505 -0.025588 -0.500000
v -3.761505 -0.025588 0.500000
v 4.430216 -0.025595 -0.500000
v 4.430216 -0.025595 0.500000
v -4.430216 -0.025595 -0.500000
v -4.430216 -0.025595 0.500000
v 4.430216 1.871688 0.500000
v 4.396034 1.999258 0.500000
v 4.302646 2.092647 0.500000
v 4.175076 2.126829 0.500000
v 4.296487 2.005730 0.500000
v 4.430216 1.871688 -0.500000
v 4.296487 2.005730 -0.500000
v 4.175076 2.126829 -0.500000
v 4.302646 2.092647 -0.500000
v 4.396034 1.999258 -0.500000
v -4.430216 1.871688 0.500000
v -4.296487 2.005730 0.500000
v -4.175076 2.126829 0.500000
v -4.302646 2.092647 0.500000
v -4.396034 1.999258 0.500000
v -4.430216 1.871688 -0.500000
v -4.396034 1.999258 -0.500000
v -4.302646 2.092647 -0.500000
v -4.175076 2.126829 -0.500000
v -4.296487 2.005730 -0.500000
vt 0.000000 0.381645
vt 0.243701 0.381645
vt 0.243701 0.844014
vt 0.000000 0.844014
vt 0.000000 0.875103
vt 0.243701 0.875103
vt 0.000000 0.897862
vt 0.243701 0.897862
vt 0.000000 0.906192
vt 0.243701 0.906192
vt 0.246894 0.381645
vt 0.490595 0.381645
vt 0.490595 0.844015
vt 0.246894 0.844015
vt 0.490595 0.875104
vt 0.246894 0.875104
vt 0.490595 0.897863
vt 0.246894 0.897863
vt 0.490595 0.906193
vt 0.246894 0.906193
vt 0.737213 0.381645
vt 0.737213 0.758190
vt 0.493787 0.758190
vt 0.493787 0.381645
vt 0.984106 0.381645
vt 0.984106 0.758190
vt 0.740681 0.758190
vt 0.740681 0.381645
vt 0.000000 1.000000
vt 0.000000 0.906193
vt 0.701129 0.906193
vt 0.701129 1.000000
vt 0.061723 0.000000
vt 0.061723 0.093807
vt 0.693401 0.093807
vt 0.693401 0.000000
vt 0.845974 0.000000
vt 0.845974 0.093807
vt 0.902123 0.093807
vt 0.902123 0.000000
vt 0.844030 0.093807
vt 0.844030 0.000000
vt 0.787881 0.000000
vt 0.787881 0.093807
vt 0.059412 0.137137
vt 0.727802 0.137137
vt 0.775333 0.180087
vt 0.764546 0.190823
vt 0.022668 0.190823
vt 0.011881 0.180087
vt 0.727802 0.327960
vt 0.059412 0.327960
vt 0.011881 0.370909
vt 0.022668 0.381645
vt 0.764546 0.381645
vt 0.775333 0.370909
vt 0.727802 0.190823
vt 0.787214 0.359026
vt 0.787214 0.190822
vt 0.727802 0.000001
vt 0.787214 0.000000
vt 0.787214 0.168203
vt 0.059412 0.000001
vt 0.000000 0.168203
vt 0.000000 0.000000
vt 0.059412 0.190823
vt 0.000000 0.190822
vt 0.000000 0.359026
vt 0.784177 0.179513
vt 0.775880 0.187792
vt 0.775880 0.378615
vt 0.784177 0.370335
vt 0.011334 0.187792
vt 0.003037 0.179513
vt 0.003037 0.370335
vt 0.011334 0.378615
vn -0.004032 0.999992 0.000000
vn -0.004032 0.999992 0.000000
vn 0.004032 0.999992 0.000000
vn 0.004032 0.999992 0.000000
vn 1.000000 0.000000 0.000000
vn 1.000000 0.000000 0.000000
vn 0.999858 0.016879 0.000000
vn 0.999858 0.016879 0.000000
vn -1.000000 0.000000 0.000000
vn -1.000000 0.000000 0.000000
vn -0.999858 0.016879 0.000000
vn -0.999858 0.016879 0.000000
vn 0.000000 -1.000000 0.000000
vn 0.000000 -1.000000 0.000000
vn 0.000000 -1.000000 0.000000
vn 0.000000 -1.000000 0.000000
vn -1.000000 0.000000 0.000000
vn -1.000000 0.000000 0.000000
vn -1.000000 0.000000 0.000000
vn -1.000000 0.000000 0.000000
vn 1.000000 0.000000 0.000000
vn 1.000000 0.000000 0.000000
vn 1.000000 0.000000 0.000000
vn 1.000000 0.000000 0.000000
vn 0.000000 0.000000 1.000000
vn 0.000000 0.000000 1.000000
vn 0.000000 0.000000 1.000000
vn 0.000000 0.000000 1.000000
vn -0.000000 0.000000 1.000000
vn -0.000000 0.000000 1.000000
vn 0.000000 0.000000 -1.000000
vn 0.000000 0.000000 -1.000000
vn -0.000000 0.000000 -1.000000
vn -0.000000 0.000000 -1.000000
vn 0.000000 0.000000 -1.000000
vn 0.000000 0.000000 -1.000000
vn -0.000009 -1.000000 0.000000
vn -0.000009 -1.000000 0.000000
vn -0.000009 -1.000000 0.000000
vn -0.000009 -1.000000 0.000000
vn 0.000000 0.000000 -1.000000
vn 0.000000 0.000000 -1.000000
vn 0.000000 0.000000 -1.000000
vn 0.000000 0.000000 -1.000000
vn 0.000000 0.000000 1.000000
vn 0.000000 0.000000 1.000000
vn 0.000000 0.000000 1.000000
vn 0.000000 0.000000 1.000000
vn 0.000009 -1.000000 0.000000
vn 0.000009 -1.000000 0.000000
vn 0.000009 -1.000000 0.000000
vn 0.000009 -1.000000 0.000000
vn -0.000000 0.000000 1.000000
vn -0.000000 0.000000 1.000000
vn -0.000000 0.000000 1.000000
vn -0.000000 0.000000 1.000000
vn -0.000000 0.000000 -1.000000
vn -0.000000 0.000000 -1.000000
vn -0.000000 0.000000 -1.000000
vn -0.000000 0.000000 -1.000000
vn 0.258820 0.965925 0.000000
vn 0.258820 0.965925 0.000000
vn 0.707107 0.707107 0.000000
vn 0.866025 0.500000 0.000000
vn 0.866025 0.500000 0.000000
vn 0.707107 0.707107 0.000000
vn -0.866025 0.500000 0.000000
vn -0.866025 0.500000 0.000000
vn -0.707107 0.707107 0.000000
vn -0.707107 0.707107 0.000000
vn -0.258820 0.965925 0.000000
vn -0.258820 0.965925 0.000000
vn 0.000000 0.000000 1.000000
vn 0.000001 0.000000 1.000000
vn 0.000001 0.000000 -1.000000
vn -0.000000 0.000000 -1.000000
vn -0.000001 0.000000 1.000000
vn 0.000000 0.000000 1.000000
vn -0.000000 0.000000 -1.000000
vn -0.000001 0.000000 -1.000000
s 1
g polySurface2 pCube2
usemtl initialShadingGroup
f 31/29/1 25/30/2 16/31/3 20/32/4
s 2
f 10/1/5 9/2/6 18/3/7 13/4/8
s 3
f 11/11/9 12/12/10 23/13/11 28/14/12
s off
f 1/33/13 4/34/14 3/35/15 2/36/16
f 5/21/17 2/22/18 3/23/19 6/24/20
f 7/25/21 4/26/22 1/27/23 8/28/24
s 4
f 1/45/25 2/46/26 17/47/27 16/48/28 25/49/29 24/50/30
s 5
f 3/51/31 4/52/32 32/53/33 31/54/34 20/55/35 19/56/36
s off
f 5/37/37 6/38/38 9/39/39 10/40/40
s 5
f 6/57/41 3/51/42 19/56/36 18/58/43 9/59/44
s 4
f 2/46/45 5/60/46 10/61/47 13/62/48 17/47/27
s off
f 7/41/49 8/42/50 12/43/51 11/44/52
s 4
f 8/63/53 1/45/54 24/50/30 23/64/55 12/65/56
s 5
f 4/52/57 7/66/58 11/67/59 28/68/60 32/53/33
s 1
f 16/9/3 15/7/61 21/8/62 20/10/4
s 2
f 15/7/63 14/5/64 22/6/65 21/8/66
f 14/5/64 13/4/8 18/3/7 22/6/65
s 3
f 23/13/11 27/15/67 29/16/68 28/14/12
f 27/15/67 26/17/69 30/18/70 29/16/68
s 1
f 26/17/71 25/19/2 31/20/1 30/18/72
s 4
f 17/47/27 13/62/48 14/69/73
f 17/47/27 14/69/73 15/70/74
f 17/47/27 15/70/74 16/48/28
s 5
f 19/56/36 20/55/35 21/71/75
f 19/56/36 21/71/75 22/72/76
f 19/56/36 22/72/76 18/58/43
s 4
f 24/50/30 25/49/29 26/73/77
f 24/50/30 26/73/77 27/74/78
f 24/50/30 27/74/78 23/64/55
s 5
f 32/53/33 28/68/60 29/75/79
f 32/53/33 29/75/79 30/76/80
f 32/53/33 30/76/80 31/54/34
