# This file uses centimeters as units for non-parametric coordinates.

mtllib rect 2.mtl
g default
v -1.629810 6.415460 0.500000
v 1.629810 6.415460 0.500000
v 1.629810 6.415460 -0.500000
v -1.629810 6.415460 -0.500000
v 1.629810 -0.025588 0.500000
v 1.629810 -0.025588 -0.500000
v -1.629810 -0.025588 -0.500000
v -1.629810 -0.025588 0.500000
v 2.298522 -0.025595 -0.500000
v 2.298522 -0.025595 0.500000
v -2.298522 -0.025595 -0.500000
v -2.298522 -0.025595 0.500000
v 2.298522 6.765876 0.500000
v 2.264340 6.893446 0.500000
v 2.170951 6.986834 0.500000
v 2.043382 7.021017 0.500000
v 2.164793 6.899917 0.500000
v 2.298522 6.765876 -0.500000
v 2.164793 6.899917 -0.500000
v 2.043382 7.021017 -0.500000
v 2.170951 6.986834 -0.500000
v 2.264340 6.893446 -0.500000
v -2.298522 6.765876 0.500000
v -2.164793 6.899917 0.500000
v -2.043382 7.021017 0.500000
v -2.170951 6.986834 0.500000
v -2.264340 6.893446 0.500000
v -2.298522 6.765876 -0.500000
v -2.264340 6.893446 -0.500000
v -2.170951 6.986834 -0.500000
v -2.043382 7.021017 -0.500000
v -2.164793 6.899917 -0.500000
vt 0.000000 0.000000
vt 0.141912 0.000000
vt 0.141912 0.963792
vt 0.000000 0.963792
vt 0.000000 0.981896
vt 0.141912 0.981896
vt 0.000000 0.995149
vt 0.141912 0.995149
vt 0.000000 1.000000
vt 0.141912 1.000000
vt 0.145258 0.000000
vt 0.287170 0.000000
vt 0.287170 0.963793
vt 0.145258 0.963793
vt 0.287170 0.981896
vt 0.145258 0.981896
vt 0.287170 0.995149
vt 0.145258 0.995149
vt 0.287170 1.000000
vt 0.145258 1.000000
vt 0.432378 0.000000
vt 0.432378 0.913747
vt 0.290515 0.913747
vt 0.290515 0.000000
vt 0.577636 0.000000
vt 0.577636 0.913747
vt 0.435773 0.913747
vt 0.435773 0.000000
vt 0.581031 0.669613
vt 0.581031 0.620576
vt 0.803976 0.620576
vt 0.803976 0.669613
vt 0.622533 0.000000
vt 0.622533 0.049037
vt 0.800355 0.049037
vt 0.800355 0.000000
vt 0.895756 0.000000
vt 0.895756 0.051707
vt 0.930352 0.051707
vt 0.930352 0.000000
vt 0.895767 0.051707
vt 0.895767 0.000000
vt 0.861170 0.000000
vt 0.861170 0.051707
vt 0.621656 0.283623
vt 0.819686 0.283623
vt 0.852187 0.304956
vt 0.844811 0.310288
vt 0.596531 0.310288
vt 0.589155 0.304956
vt 0.819686 0.593911
vt 0.621656 0.593911
vt 0.589155 0.615243
vt 0.596531 0.620576
vt 0.844811 0.620576
vt 0.852187 0.615243
vt 0.819686 0.310288
vt 0.860312 0.609341
vt 0.860312 0.310288
vt 0.819686 0.000000
vt 0.860312 0.000000
vt 0.860312 0.299053
vt 0.621656 0.000000
vt 0.581031 0.299053
vt 0.581031 0.000000
vt 0.621656 0.310288
vt 0.581031 0.310288
vt 0.581031 0.609341
vt 0.858235 0.304671
vt 0.852561 0.308783
vt 0.852561 0.619071
vt 0.858235 0.614959
vt 0.588781 0.308783
vt 0.583107 0.304671
vt 0.583107 0.614959
vt 0.588781 0.619071
vn -0.008111 0.999967 0.000000
vn -0.008111 0.999967 0.000000
vn 0.008111 0.999967 0.000000
vn 0.008111 0.999967 0.000000
vn 1.000000 0.000000 0.000000
vn 1.000000 0.000000 0.000000
vn 0.999988 0.004940 0.000000
vn 0.999988 0.004940 0.000000
vn -1.000000 0.000000 0.000000
vn -1.000000 0.000000 0.000000
vn -0.999988 0.004940 0.000000
vn -0.999988 0.004940 0.000000
vn 0.000000 -1.000000 0.000000
vn 0.000000 -1.000000 0.000000
vn 0.000000 -1.000000 0.000000
vn 0.000000 -1.000000 0.000000
vn -1.000000 0.000000 0.000000
vn -1.000000 0.000000 0.000000
vn -1.000000 0.000000 0.000000
vn -1.000000 0.000000 0.000000
vn 1.000000 0.000000 0.000000
vn 1.000000 0.000000 0.000000
vn 1.000000 0.000000 0.000000
vn 1.000000 0.000000 0.000000
vn 0.000000 0.000000 1.000000
vn 0.000000 0.000000 1.000000
vn 0.000000 0.000000 1.000000
vn 0.000000 0.000000 1.000000
vn -0.000000 0.000000 1.000000
vn -0.000000 0.000000 1.000000
vn 0.000000 0.000000 -1.000000
vn 0.000000 0.000000 -1.000000
vn -0.000000 0.000000 -1.000000
vn -0.000000 0.000000 -1.000000
vn 0.000000 0.000000 -1.000000
vn 0.000000 0.000000 -1.000000
vn -0.000009 -1.000000 0.000000
vn -0.000009 -1.000000 0.000000
vn -0.000009 -1.000000 0.000000
vn -0.000009 -1.000000 0.000000
vn 0.000000 0.000000 -1.000000
vn 0.000000 0.000000 -1.000000
vn 0.000000 0.000000 -1.000000
vn 0.000000 0.000000 -1.000000
vn 0.000000 0.000000 1.000000
vn 0.000000 0.000000 1.000000
vn 0.000000 0.000000 1.000000
vn 0.000000 0.000000 1.000000
vn 0.000009 -1.000000 0.000000
vn 0.000009 -1.000000 0.000000
vn 0.000009 -1.000000 0.000000
vn 0.000009 -1.000000 0.000000
vn -0.000000 0.000000 1.000000
vn -0.000000 0.000000 1.000000
vn -0.000000 0.000000 1.000000
vn -0.000000 0.000000 1.000000
vn -0.000000 0.000000 -1.000000
vn -0.000000 0.000000 -1.000000
vn -0.000000 0.000000 -1.000000
vn -0.000000 0.000000 -1.000000
vn 0.258823 0.965925 0.000000
vn 0.258823 0.965925 0.000000
vn 0.707105 0.707108 0.000000
vn 0.866025 0.500000 0.000000
vn 0.866025 0.500000 0.000000
vn 0.707105 0.707108 0.000000
vn -0.866025 0.500000 0.000000
vn -0.866025 0.500000 0.000000
vn -0.707105 0.707108 0.000000
vn -0.707105 0.707108 0.000000
vn -0.258823 0.965925 0.000000
vn -0.258823 0.965925 0.000000
vn 0.000000 0.000000 1.000000
vn 0.000001 0.000000 1.000000
vn 0.000001 0.000000 -1.000000
vn -0.000000 0.000000 -1.000000
vn -0.000001 0.000000 1.000000
vn 0.000000 0.000000 1.000000
vn -0.000000 0.000000 -1.000000
vn -0.000001 0.000000 -1.000000
s 1
g polySurface2 pCube2
usemtl initialShadingGroup
f 31/29/1 25/30/2 16/31/3 20/32/4
s 2
f 10/1/5 9/2/6 18/3/7 13/4/8
s 3
f 11/11/9 12/12/10 23/13/11 28/14/12
s off
f 1/33/13 4/34/14 3/35/15 2/36/16
f 5/21/17 2/22/18 3/23/19 6/24/20
f 7/25/21 4/26/22 1/27/23 8/28/24
s 4
f 1/45/25 2/46/26 17/47/27 16/48/28 25/49/29 24/50/30
s 5
f 3/51/31 4/52/32 32/53/33 31/54/34 20/55/35 19/56/36
s off
f 5/37/37 6/38/38 9/39/39 10/40/40
s 5
f 6/57/41 3/51/42 19/56/36 18/58/43 9/59/44
s 4
f 2/46/45 5/60/46 10/61/47 13/62/48 17/47/27
s off
f 7/41/49 8/42/50 12/43/51 11/44/52
s 4
f 8/63/53 1/45/54 24/50/30 23/64/55 12/65/56
s 5
f 4/52/57 7/66/58 11/67/59 28/68/60 32/53/33
s 1
f 16/9/3 15/7/61 21/8/62 20/10/4
s 2
f 15/7/63 14/5/64 22/6/65 21/8/66
f 14/5/64 13/4/8 18/3/7 22/6/65
s 3
f 23/13/11 27/15/67 29/16/68 28/14/12
f 27/15/67 26/17/69 30/18/70 29/16/68
s 1
f 26/17/71 25/19/2 31/20/1 30/18/72
s 4
f 17/47/27 13/62/48 14/69/73
f 17/47/27 14/69/73 15/70/74
f 17/47/27 15/70/74 16/48/28
s 5
f 19/56/36 20/55/35 21/71/75
f 19/56/36 21/71/75 22/72/76
f 19/56/36 22/72/76 18/58/43
s 4
f 24/50/30 25/49/29 26/73/77
f 24/50/30 26/73/77 27/74/78
f 24/50/30 27/74/78 23/64/55
s 5
f 32/53/33 28/68/60 29/75/79
f 32/53/33 29/75/79 30/76/80
f 32/53/33 30/76/80 31/54/34
